<?xml version="1.0" encoding="utf-8"?>
<!-- Generator: Adobe Illustrator 19.0.0, SVG Export Plug-In . SVG Version: 6.00 Build 0)  -->
<svg version="1.1" id="Capa_1" xmlns="http://www.w3.org/2000/svg" xmlns:xlink="http://www.w3.org/1999/xlink" x="0px" y="0px"
	 viewBox="-49 141 512 512" style="enable-background:new -49 141 512 512;" xml:space="preserve">
<g>
	<path d="M95,390H63c-8.3,0-15,6.7-15,15s6.7,15,15,15h32c8.3,0,15-6.7,15-15S103.3,390,95,390z"/>
	<path d="M95,454H63c-8.3,0-15,6.7-15,15s6.7,15,15,15h32c8.3,0,15-6.7,15-15S103.3,454,95,454z"/>
	<path d="M95,518H63c-8.3,0-15,6.7-15,15s6.7,15,15,15h32c8.3,0,15-6.7,15-15S103.3,518,95,518z"/>
	<path d="M223,390h-32c-8.3,0-15,6.7-15,15s6.7,15,15,15h32c8.3,0,15-6.7,15-15S231.3,390,223,390z"/>
	<path d="M223,454h-32c-8.3,0-15,6.7-15,15s6.7,15,15,15h32c8.3,0,15-6.7,15-15S231.3,454,223,454z"/>
	<path d="M223,518h-32c-8.3,0-15,6.7-15,15s6.7,15,15,15h32c8.3,0,15-6.7,15-15S231.3,518,223,518z"/>
	<path d="M351,390h-32c-8.3,0-15,6.7-15,15s6.7,15,15,15h32c8.3,0,15-6.7,15-15S359.3,390,351,390z"/>
	<path d="M351,454h-32c-8.3,0-15,6.7-15,15s6.7,15,15,15h32c8.3,0,15-6.7,15-15S359.3,454,351,454z"/>
	<path d="M355.2,536.9l-25-20c-6.5-5.2-14.2-6.2-17.4-2.3c-3.1,3.9-0.4,11.3,6.1,16.4l25,20c6.5,5.2,14.2,6.2,17.4,2.3
		S361.6,542.1,355.2,536.9z"/>
	<path d="M343.6,515.7l-24.1,21c-6.2,5.4-8.6,12.9-5.3,16.7c3.3,3.8,11,2.4,17.3-3l24.1-21c6.2-5.4,8.6-12.9,5.3-16.7
		C357.6,508.8,349.8,510.2,343.6,515.7z"/>
	<path d="M418,206h-36v-25c0-8.3-6.7-15-15-15s-15,6.7-15,15v25H222v-25c0-8.3-6.7-15-15-15s-15,6.7-15,15v25H62v-25
		c0-8.3-6.7-15-15-15s-15,6.7-15,15v25H-4c-24.8,0-45,20.2-45,45v332c0,24.8,20.2,45,45,45h422c24.8,0,45-20.2,45-45
		c0-9.7,0-323.6,0-332C463,226.2,442.8,206,418,206z M-19,251c0-8.3,6.7-15,15-15h36v25c0,8.3,6.7,15,15,15s15-6.7,15-15v-25h130v25
		c0,8.3,6.7,15,15,15s15-6.7,15-15v-25h130v25c0,8.3,6.7,15,15,15s15-6.7,15-15v-25h36c8.3,0,15,6.7,15,15v59H-19V251z M418,598H-4
		c-8.3,0-15-6.7-15-15V340h452v243C433,591.3,426.3,598,418,598z"/>
</g>
</svg>
