<?xml version="1.0" encoding="utf-8"?>
<!-- Generator: Adobe Illustrator 19.0.0, SVG Export Plug-In . SVG Version: 6.00 Build 0)  -->
<svg version="1.1" id="Capa_1" xmlns="http://www.w3.org/2000/svg" xmlns:xlink="http://www.w3.org/1999/xlink" x="0px" y="0px"
	 viewBox="-49 141 512 512" style="enable-background:new -49 141 512 512;" xml:space="preserve">
<style type="text/css">
	.st0{display:none;}
	.st1{display:none;fill:#FFFFFF;}
</style>
<g>
	<path d="M396.5,454.7L377,439c-5.1-4.1-11.2-4.9-13.6-1.8s-0.3,8.8,4.7,12.9l19.6,15.7c5.1,4.1,11.2,4.9,13.6,1.8
		S401.6,458.7,396.5,454.7z"/>
	<path d="M387.5,438l-18.9,16.5c-4.9,4.3-6.8,10.1-4.2,13.1s8.6,1.9,13.5-2.4l18.9-16.5c4.9-4.3,6.8-10.1,4.2-13.1
		S392.4,433.8,387.5,438z"/>
	<path d="M450.3,195.5h-50.8v-25.2c-10.4-11.8-23.5-4.6-23.5,5.6v19.6H274.2v-25.2c-10.4-11.8-23.5-4.6-23.5,5.6v19.6H148.9v-25.2
		c-10.4-11.8-23.5-4.6-23.5,5.6v19.6H74.7c-7,0-12.7,5.7-12.7,12.7v305.2c0,7,5.7,12.7,12.7,12.7c92.5,0,184.9,0,277.4,0
		c32.8,0,65.5,0,98.3,0c0.8,0,5.3-0.1,9-3.7c2.3-2.3,3.7-5.5,3.7-9V208.2C463,201.2,457.3,195.5,450.3,195.5z M85.5,219h39.9l0,25.2
		c10.4,11.8,23.5,4.6,23.5-5.6V219h101.8l0,25.2c10.4,11.8,23.5,4.6,23.5-5.6V219h101.8v25.2c10.4,11.8,23.5,4.6,23.5-5.6V219h39.9
		v58h-354V219z M62,300.5h374.7v212.4c0,7.2,0.2,5.6,0,13.1H74.4c-7-0.3-12.4-5.8-12.4-13.1"/>
	<path d="M395,404.4l-19.6-15.7c-5.1-4.1-11.2-4.9-13.6-1.8c-2.4,3.1-0.3,8.8,4.7,12.9l19.6,15.7c5.1,4.1,11.2,4.9,13.6,1.8
		S400,408.4,395,404.4z"/>
	<path d="M385.9,387.7L367,404.2c-4.9,4.3-6.8,10.1-4.2,13.1s8.6,1.9,13.5-2.4l18.9-16.5c4.9-4.3,6.8-10.1,4.2-13.1
		S390.8,383.5,385.9,387.7z"/>
	<path d="M395,354.3l-19.6-15.7c-5.1-4.1-11.2-4.9-13.6-1.8c-2.4,3.1-0.3,8.8,4.7,12.9l19.6,15.7c5.1,4.1,11.2,4.9,13.6,1.8
		S400,358.3,395,354.3z"/>
	<path d="M385.9,337.6L367,354.1c-4.9,4.3-6.8,10.1-4.2,13.1s8.6,1.9,13.5-2.4l18.9-16.5c4.9-4.3,6.8-10.1,4.2-13.1
		S390.8,333.3,385.9,337.6z"/>
</g>
<g id="Calque_2" class="st0">
</g>
<rect x="-34" y="315" class="st1" width="371" height="299"/>
<g>
	<path d="M66.4,507.2l-19.6-15.7c-5.1-4.1-11.2-4.9-13.6-1.8s-0.3,8.8,4.7,12.9l19.6,15.7c5.1,4.1,11.2,4.9,13.6,1.8
		C73.6,517,71.5,511.2,66.4,507.2z"/>
	<path d="M57.3,490.5L38.5,507c-4.9,4.3-6.8,10.1-4.2,13.1c2.6,3,8.6,1.9,13.5-2.4l18.9-16.5c4.9-4.3,6.8-10.1,4.2-13.1
		S62.2,486.2,57.3,490.5z"/>
	<path d="M66.8,556.6l-19.6-15.7c-5.1-4.1-11.2-4.9-13.6-1.8s-0.3,8.8,4.7,12.9l19.6,15.7c5.1,4.1,11.2,4.9,13.6,1.8
		C74,566.4,71.8,560.6,66.8,556.6z"/>
	<path d="M57.7,539.9l-18.9,16.5c-4.9,4.3-6.8,10.1-4.2,13.1c2.6,3,8.6,1.9,13.5-2.4l18.9-16.5c4.9-4.3,6.8-10.1,4.2-13.1
		C68.7,534.6,62.6,535.7,57.7,539.9z"/>
	<path d="M267.5,556.7L248,541c-5.1-4.1-11.2-4.9-13.6-1.8c-2.4,3.1-0.3,8.8,4.7,12.9l19.6,15.7c5.1,4.1,11.2,4.9,13.6,1.8
		C274.7,566.5,272.6,560.7,267.5,556.7z"/>
	<path d="M258.5,540l-18.9,16.5c-4.9,4.3-6.8,10.1-4.2,13.1c2.6,3,8.6,1.9,13.5-2.4l18.9-16.5c4.9-4.3,6.8-10.1,4.2-13.1
		S263.4,535.7,258.5,540z"/>
	<path d="M316.8,297.5h-28.2v-19.6c0-6.5-5.3-11.7-11.7-11.7s-11.7,5.3-11.7,11.7v19.6H163.2v-19.6c0-6.5-5.3-11.7-11.7-11.7
		s-11.7,5.3-11.7,11.7v19.6H37.9v-19.6c0-6.5-5.3-11.7-11.7-11.7s-11.7,5.3-11.7,11.7v19.6h-28.2c-19.4,0-35.2,15.8-35.2,35.2v260
		c0,19.4,15.8,35.2,35.2,35.2h330.5c19.4,0,35.2-15.8,35.2-35.2c0-7.6,0-253.4,0-260C352,313.3,336.2,297.5,316.8,297.5z
		 M-25.5,332.7c0-6.5,5.3-11.7,11.7-11.7h28.2v19.6c0,6.5,5.3,11.7,11.7,11.7s11.7-5.3,11.7-11.7V321h101.8v19.6
		c0,6.5,5.3,11.7,11.7,11.7s11.7-5.3,11.7-11.7V321h101.8v19.6c0,6.5,5.3,11.7,11.7,11.7s11.7-5.3,11.7-11.7V321h28.2
		c6.5,0,11.7,5.3,11.7,11.7v46.2h-354V332.7z M316.8,604.5H-13.8c-6.5,0-11.7-5.3-11.7-11.7V402.4h354v190.3
		C328.5,599.2,323.2,604.5,316.8,604.5z"/>
	<path d="M165.7,506.5l-19.6-15.7c-5.1-4.1-11.2-4.9-13.6-1.8c-2.4,3.1-0.3,8.8,4.7,12.9l19.6,15.7c5.1,4.1,11.2,4.9,13.6,1.8
		C172.9,516.3,170.8,510.5,165.7,506.5z"/>
	<path d="M156.7,489.8l-18.9,16.5c-4.9,4.3-6.8,10.1-4.2,13.1c2.6,3,8.6,1.9,13.5-2.4l18.9-16.5c4.9-4.3,6.8-10.1,4.2-13.1
		C167.6,484.5,161.6,485.5,156.7,489.8z"/>
	<path d="M266,506.4l-19.6-15.7c-5.1-4.1-11.2-4.9-13.6-1.8c-2.4,3.1-0.3,8.8,4.7,12.9l19.6,15.7c5.1,4.1,11.2,4.9,13.6,1.8
		S271,510.4,266,506.4z"/>
	<path d="M256.9,489.7L238,506.2c-4.9,4.3-6.8,10.1-4.2,13.1c2.6,3,8.6,1.9,13.5-2.4l18.9-16.5c4.9-4.3,6.8-10.1,4.2-13.1
		S261.8,485.4,256.9,489.7z"/>
	<path d="M65.5,456.3l-19.6-15.7c-5.1-4.1-11.2-4.9-13.6-1.8c-2.4,3.1-0.3,8.8,4.7,12.9l19.6,15.7c5.1,4.1,11.2,4.9,13.6,1.8
		S70.5,460.4,65.5,456.3z"/>
	<path d="M56.4,439.7l-18.9,16.5c-4.9,4.3-6.8,10.1-4.2,13.1c2.6,3,8.6,1.9,13.5-2.4l18.9-16.5c4.9-4.3,6.8-10.1,4.2-13.1
		C67.4,434.3,61.3,435.4,56.4,439.7z"/>
	<path d="M165.7,456.3l-19.6-15.7c-5.1-4.1-11.2-4.9-13.6-1.8c-2.4,3.1-0.3,8.8,4.7,12.9l19.6,15.7c5.1,4.1,11.2,4.9,13.6,1.8
		C172.9,466.1,170.8,460.4,165.7,456.3z"/>
	<path d="M156.7,439.7l-18.9,16.5c-4.9,4.3-6.8,10.1-4.2,13.1c2.6,3,8.6,1.9,13.5-2.4l18.9-16.5c4.9-4.3,6.8-10.1,4.2-13.1
		C167.6,434.3,161.6,435.4,156.7,439.7z"/>
	<path d="M266,456.2l-19.6-15.7c-5.1-4.1-11.2-4.9-13.6-1.8c-2.4,3.1-0.3,8.8,4.7,12.9l19.6,15.7c5.1,4.1,11.2,4.9,13.6,1.8
		S271,460.3,266,456.2z"/>
	<path d="M256.9,439.6L238,456.1c-4.9,4.3-6.8,10.1-4.2,13.1c2.6,3,8.6,1.9,13.5-2.4l18.9-16.5c4.9-4.3,6.8-10.1,4.2-13.1
		S261.8,435.3,256.9,439.6z"/>
	<path d="M165.7,557.4l-19.6-15.7c-5.1-4.1-11.2-4.9-13.6-1.8c-2.4,3.1-0.3,8.8,4.7,12.9l19.6,15.7c5.1,4.1,11.2,4.9,13.6,1.8
		C172.9,567.2,170.8,561.4,165.7,557.4z"/>
	<path d="M156.7,540.7l-18.9,16.5c-4.9,4.3-6.8,10.1-4.2,13.1c2.6,3,8.6,1.9,13.5-2.4l18.9-16.5c4.9-4.3,6.8-10.1,4.2-13.1
		C167.6,535.4,161.6,536.4,156.7,540.7z"/>
</g>
<path class="st0" d="M312.7,528.7"/>
<path class="st0" d="M330.7,524"/>
<polyline points="437.7,526 352,525.6 352,506.3 437.7,506.7 "/>
</svg>
