<svg xmlns="http://www.w3.org/2000/svg" width="24" height="24" viewBox="0 0 24 24">
    <g fill="none" fill-rule="evenodd">
        <g fill="#57C2DC">
            <g>
                <g>
                    <g>
                        <g>
                            <path d="M15.55 14.337c.49-.259 1.007-.316 1.37-.094.323.197 3.352 2.208 3.682 2.438.473.332.54 1.091.116 1.696-.828 1.186-2.229 2.645-2.964 2.623-.36-.012-.606-.035-.99-.115-.554-.115-1.168-.321-1.855-.644-1.807-.849-3.907-2.397-6.33-4.821-2.424-2.424-3.972-4.524-4.82-6.332-.323-.686-.53-1.3-.645-1.855-.08-.384-.102-.631-.114-.99-.023-.735 1.435-2.135 2.622-2.965.603-.42 1.36-.35 1.694.113.185.257 2.168 3.257 2.437 3.681.23.362.17.88-.091 1.375-.053.1-.363.653-.932 1.66.18.762.895 1.768 2.145 3.018 1.25 1.25 2.256 1.965 3.017 2.144 1.006-.57 1.559-.88 1.658-.932z" transform="translate(-566 -52) translate(566 48) translate(0 2) translate(0 2)"/>
                        </g>
                    </g>
                </g>
            </g>
        </g>
    </g>
</svg>
