<?xml version="1.0" encoding="utf-8"?>
<!-- Generator: Adobe Illustrator 19.0.0, SVG Export Plug-In . SVG Version: 6.00 Build 0)  -->
<svg version="1.1" id="Calque_1" xmlns="http://www.w3.org/2000/svg" xmlns:xlink="http://www.w3.org/1999/xlink" x="0px" y="0px"
	 viewBox="-273 365 64 64" style="enable-background:new -273 365 64 64;" xml:space="preserve">
<style type="text/css">
	.st0{fill:#111111;}
</style>
<path class="st0" d="M-221,373v48h-40v-48H-221z M-247,406h-6v6h6V406z M-227,407h-14v4h14V407z M-246,392.5l-5,5l-2-2l-2,2l4,4l7-7
	L-246,392.5z M-227,395h-14v4h14V395z M-246,381l-5,5l-2-2l-2,2l4,4l7-7L-246,381z M-227,383.5h-14v4h14V383.5z"/>
</svg>
