<?xml version="1.0" encoding="utf-8"?>
<!-- Generator: Adobe Illustrator 24.1.2, SVG Export Plug-In . SVG Version: 6.00 Build 0)  -->
<svg version="1.1" id="Calque_1" xmlns="http://www.w3.org/2000/svg" xmlns:xlink="http://www.w3.org/1999/xlink" x="0px" y="0px"
	 viewBox="0 0 595.3 302" style="enable-background:new 0 0 595.3 302;" xml:space="preserve">
<g>
	<path d="M33.5,246.7c-2-0.6-10.3-0.4-13.5-0.5v31.2h3.1c0,0,0-14.5,0-14.5c6.2-0.2,11.3,0.8,14.8-3.2
		C41.5,255.4,39.2,247.7,33.5,246.7z M23.1,259.8v-10.6C41.1,246.7,41,262.5,23.1,259.8z"/>
	<path d="M68.1,246.2l-14.9,31.2h3.5l4.9-10.3h13.6l4.9,10.3h3.4l-14.7-31.2H68.1z M63,264.1l5.4-11.3l5.4,11.3H63z"/>
	<path d="M98.6,246.2v31.2h3.1v-14.5h1.8l11.3,14.5h3.9c0,0-11.3-14.5-11.3-14.5C123.5,262.9,123.5,242.4,98.6,246.2z M101.8,259.9
		v-10.6C119.8,246.7,119.7,262.4,101.8,259.9z"/>
	<rect x="134.7" y="246.2" width="3.1" height="31.2"/>
	<path d="M158.3,249.8c3.1-2.5,6.6-0.7,8.9,2.7c0,0,2.6-1.9,2.6-1.9c-5.3-10.3-21.2-3-14.2,7c2.7,3.8,14.4,8.7,10.6,15
		c-3.3,4.5-8.9,3.2-11.6-2.5l-2.7,1.6c5.2,12.2,23.7,5.6,16.9-6.5C166.6,260.4,153,256.2,158.3,249.8z"/>
	<path d="M574.9,106.1c-22.2-40-55.8-50.6-84-51.1c-48.1-0.9-72.2,33.2-67.3,58c3.7,18.8,26.3,26.5,42.4,13.3
		c-16,9.7-37.2-2.7-35.4-23.2c1.6-18,17.8-43.6,52-46.1c30.6-2.2,71,19.8,83.6,67.3c5.8,21.9,2.8,54.3-13.1,78
		c-10.3,15.3-24.6,26.6-44.4,31.5c-0.6,0.1-1.2,0.3-1.8,0.4c-7.7,1.8-22.3,2.3-26.5,2.7c-9.3,0.9-27.5,1.8-46.1,1.7
		c-42.3-0.1-140.8-0.5-168.9-0.6c3.7-5.2,8.8-12.5,14.5-20.8c26.8-11.8,47.7-32.7,70.2-50.7c3.9,3.5,8,3.9,16.2,4.8
		c-6.2,4.5-17.2,14.6-17.2,14.6c-4.9-1.1-9.1-0.6-10.6,3.6c1.2-0.9,3.8-2.2,7.8-1c-10.1,7.4-18.4,18.1-29.9,23
		c-1.4,0.6-6.5,2.3-7.7,2.8c-5.1,2.1-11,5-10.1,8.9c2.6,8.6,17.7-5.9,25.4-10.5c1.1-0.6,6.2-2.8,7.8-3.2c26.3-7,34,39.5,65.9,2
		c-1.5,25,22.7,10.6,37.7,1.7c1.4,19.4,31.6,15,51.4-7.8c-6.3,29.9,19.3,21.2,34.5,7.1c0.3-0.2,0.6-0.6,0.6-0.6h-4.6
		c-3.8,3.1-14.9,12.4-20.1,8.3c-5.2-4.1,22.7-40.9,36.5-61.6c-6.7,0.3-14.4,0-14.4,0l-6,8.1c-1.8-17.1-17.1-16.6-32.6-9.4
		c-4.9,2.2-19.3,11.4-28.8,21.3c-5.8,6-11.2,14.6-12.3,17c-2.4,5.2-3.7,9.7-4.1,13.6c-13.3,7.1-34.2,17.9-25.7,2.2
		c12.3-20,23.6-37.2,36.7-56.6h-16.7c-8.7,12.2-26.7,37.1-31,49.9c-25.4,34.5-38.2-16.4-66.8,0.9c0,0,10-10.3,16.6-15.1
		c1.7-1.2,3.6-0.7,5-0.5c6.9,1.1,8-1.4,8-1.4c-1.6,0.1-3.5,0.1-8.3-1.6c6.8-5.6,12-11,19-15.9c7.6-2.7,17.2-3.3,24-7.8
		c7.6-5.1,3.9-13-3.8-11.1c-13.8,3.4-22,22.8-39.7,11.6c22-17.4-13-18.8-5.2,0.5c-20.3,17.2-40.8,35.3-64.5,48.2
		c14.6-21.2,32-47,40.5-59.9c-6.4,0-11.6,0.4-17.4,0.5c-41.5,67.3-115,110.1-28.8-0.6l-15.8,0.1c0,0-17,21.3-23.4,31.6
		c-3.8,5.9-6.5,11.1-8.5,15.6c-14.2,7-27.1,17-42.1,22c12.3-55.7,75.4-78.3,99.6-126.6c1.4-2.7,3.7-8.3,2.7-10.3
		c-10.6-19.9-77.2,61-96.2,91c-5.6,8.9-10.8,19.5-12.2,22.8c-14,7.4-26.7,17.7-41.6,22.9c12.1-58.6,75.1-82.4,99.1-133.2
		c1.4-2.9,3.7-8.7,2.6-10.8c-10.7-21-77,64.2-95.9,95.8c-5.9,9.9-11.4,21.9-12.3,24.5c-0.8,2.2-1.4,4.1-2,6
		c-8.2,3.7-23.5,10.4-29.9,12.6c27.8-22.9,28.8-61-14.8-51.2c-14.4,3.2-45,22.7-49.1,44.8C64,156,150,149.8,107.7,203.3
		c-4.5,5.7-13.3,11.7-22.4,16.5c-69.7,36.6-81.6-43.2-10.6-82c1.6-0.9,6.3-3.1,6.3-3.1s1.6,1.4,4,3.1c12.2,8.3,26.5,8.1,34.3,7
		c10.3-1.4,19.2-14.1,7.5-19.5c-12.4-5.5-31.5-2.2-38.4-0.4c-2.2-6.6,1.3-12.6,1.3-12.6c29.3-6,87.8-18,90.6-40.3
		c1.7-41-94.4-10-104.8,35c-33.6-1.5-50.9-34.5-10.3-60.4c34.9-25.4,91.1-29.7,137.5-21.2c47.1,7.5,87.7,29.4,122.7,54.3
		c0,0,65.9,47.7,76.6,53c13.3,7.6,32.3,13.9,49,12.6c12.7-1,21.2-5.2,26.6-9.8c4.3-3.6,6.6-8,7.2-9.3c2.3-5.9,3.2-13.5,0.2-20.1
		c-5-11.2-18.5-15.8-28.4-11.7c0,0,0,0-0.1,0c-0.7,0.3-6.5,2.8-10.4,10.1c10.4-11.2,29.7-10.5,33.9,5.8c2.4,9-3.6,18.9-10.7,23.8
		c-10.3,7.3-20.2,6.5-26.6,6.5c-6.6,0-16.8-2.9-22-4.6c-19.9-6.5-43.1-22.3-64.2-36.6C297.9,57.3,223.7-1.4,133.5,9.4
		C86.1,12.7,27.6,39.5,40,85.4c1.3,5,5.2,9.5,6.5,10.8c4.7,4.9,13.1,11,28.2,13.9c0,0-1.8,11.7,1.9,18.6c0,0-3.6,1.7-4.8,2.3
		c-112.2,60.8-60.4,144.8,58.6,77.2c-7.8,32.9,26.9,8.6,49.4-4.6c-13.3,39.4,24.4,14.1,48.1,0.8c-11.4,32.1,25.8,22.6,46.9-4.6
		c-9.1,14.1-13.7,23.3-23.5,36.8c-70.8,2.2-78.4,71.8-34.7,50.9c18.6-8.3,43.6-41.9,43.6-41.9c0.7-0.8,1.9-2.5,3.6-4.9
		c36.5,0.1,136.8,0.5,165.9,0.5c37.3,0,88.7,0.6,112.1-12.7C590,201.1,594.4,141.1,574.9,106.1z M504.9,158.6
		c15.2,4.6-16.7,37.7-22.2,43.4c-8.7,7.7-22.1,21.8-29.2,20.1C433.4,217,493.3,157.1,504.9,158.6z M235,140.9
		c66-99.3,78.7-53.4-15.2,23.9c-0.2-0.1-0.4-0.3-0.6-0.5C220,163.3,231.8,145.7,235,140.9z M187,136.5
		c65.6-104.5,78.5-56.2-15.2,25.2c-0.2-0.2-0.4-0.3-0.6-0.5C172.1,160,183.8,141.5,187,136.5z M118.4,127.4c8.8,3.3,7.9,10,0.3,11.6
		c-15.3,3.3-26.2-2.7-28.9-8.4C89.8,130.6,105,122.4,118.4,127.4z M105.7,86.5c66.7-63.4,114.7,7-14.5,21.8
		C95.8,97.5,103.3,88.8,105.7,86.5z M245.9,242.2c-57.2,84.2-65.6,2.2,0.1-2.4c0.5,0,2.5-0.1,2.5-0.1S246.8,241.1,245.9,242.2z"/>
	<g>
		<circle cx="457.2" cy="114.4" r="7.1"/>
	</g>
</g>
</svg>
